<svg xmlns="http://www.w3.org/2000/svg" width="27.316" height="27.316" viewBox="0 0 27.316 27.316">
  <g id="Chat_Icon" transform="translate(-1269.342 -671.342)">
    <path id="mode_comment_FILL0_wght400_GRAD0_opsz48" d="M31.316,31.316l-5.463-5.463H6.049a1.959,1.959,0,0,1-1.417-.632A1.959,1.959,0,0,1,4,23.8V6.049a1.959,1.959,0,0,1,.632-1.417A1.959,1.959,0,0,1,6.049,4H29.268a1.94,1.94,0,0,1,1.434.632,1.985,1.985,0,0,1,.615,1.417ZM6.049,6.049Z" transform="translate(1265.342 667.342)" fill="#fff"/>
    <circle id="Ellipse_1094" data-name="Ellipse 1094" cx="2" cy="2" r="2" transform="translate(1275 680)" fill="#494daf"/>
    <circle id="Ellipse_1095" data-name="Ellipse 1095" cx="2" cy="2" r="2" transform="translate(1281 680)" fill="#494daf"/>
    <circle id="Ellipse_1096" data-name="Ellipse 1096" cx="2" cy="2" r="2" transform="translate(1287 680)" fill="#494daf"/>
  </g>
</svg>
